<svg width="52" height="52" viewBox="0 0 66 66" fill="none" xmlns="http://www.w3.org/2000/svg">
<path d="M10.5875 23.705C10.1862 21.897 10.2478 20.0168 10.7667 18.239C11.2857 16.4611 12.2451 14.843 13.5561 13.5348C14.8671 12.2265 16.4871 11.2705 18.2661 10.7553C20.0451 10.24 21.9253 10.1824 23.7325 10.5875C24.7272 9.03185 26.0976 7.75161 27.7172 6.86481C29.3368 5.97801 31.1535 5.51318 33 5.51318C34.8465 5.51318 36.6633 5.97801 38.2829 6.86481C39.9025 7.75161 41.2728 9.03185 42.2675 10.5875C44.0775 10.1806 45.961 10.238 47.7428 10.7545C49.5246 11.2709 51.1468 12.2297 52.4586 13.5414C53.7704 14.8532 54.7291 16.4755 55.2456 18.2573C55.762 20.0391 55.8195 21.9226 55.4125 23.7325C56.9682 24.7272 58.2485 26.0975 59.1353 27.7171C60.0221 29.3367 60.4869 31.1535 60.4869 33C60.4869 34.8465 60.0221 36.6633 59.1353 38.2829C58.2485 39.9025 56.9682 41.2728 55.4125 42.2675C55.8177 44.0747 55.76 45.955 55.2448 47.734C54.7296 49.5129 53.7735 51.133 52.4653 52.444C51.1571 53.755 49.539 54.7144 47.7611 55.2333C45.9832 55.7523 44.1031 55.8139 42.295 55.4125C41.3016 56.9742 39.9303 58.2599 38.3079 59.1507C36.6855 60.0414 34.8646 60.5084 33.0138 60.5084C31.163 60.5084 29.3421 60.0414 27.7197 59.1507C26.0973 58.2599 24.7259 56.9742 23.7325 55.4125C21.9253 55.8177 20.0451 55.76 18.2661 55.2448C16.4871 54.7296 14.8671 53.7735 13.5561 52.4653C12.2451 51.1571 11.2857 49.539 10.7667 47.7611C10.2478 45.9832 10.1862 44.1031 10.5875 42.295C9.01992 41.3029 7.72868 39.9305 6.83393 38.3054C5.93917 36.6802 5.46997 34.8552 5.46997 33C5.46997 31.1449 5.93917 29.3198 6.83393 27.6947C7.72868 26.0695 9.01992 24.6971 10.5875 23.705Z" stroke="black" stroke-width="3" stroke-linecap="round" stroke-linejoin="round"/>
<path d="M22 22H44" stroke="black" stroke-width="3" stroke-linecap="round" stroke-linejoin="round"/>
<path d="M22 33H44" stroke="black" stroke-width="3" stroke-linecap="round" stroke-linejoin="round"/>
<path d="M35.75 46.75L22 44H24.75C27.6674 44 30.4653 42.8411 32.5282 40.7782C34.5911 38.7153 35.75 35.9174 35.75 33C35.75 30.0826 34.5911 27.2847 32.5282 25.2218C30.4653 23.1589 27.6674 22 24.75 22" stroke="black" stroke-width="3" stroke-linecap="round" stroke-linejoin="round"/>
</svg>
